<svg width="200" height="200" viewBox="0 0 200 200" fill="none" xmlns="http://www.w3.org/2000/svg">
<g clip-path="url(#clip0_4802_34950)">
<circle cx="100" cy="100" r="100" fill="#F4B6C7"/>
<path d="M75.7507 59V140H57V59H75.7507ZM122.546 59C122.546 75.9857 116.082 91.8253 104.518 103.825L103.383 104.972L129.283 140H106.139L77.9924 101.93L85.2567 96.5354C96.9268 87.8684 103.775 74.7545 104.191 60.3932L104.212 59H122.546ZM144.792 119.75C147.499 119.75 150.096 120.817 152.01 122.716C153.924 124.614 155 127.19 155 129.875C155 132.56 153.924 135.136 152.01 137.034C150.096 138.933 147.499 140 144.792 140C142.084 140 139.488 138.933 137.573 137.034C135.659 135.136 134.583 132.56 134.583 129.875C134.583 127.19 135.659 124.614 137.573 122.716C139.488 120.817 142.084 119.75 144.792 119.75Z" fill="black"/>
</g>
<defs>
<clipPath id="clip0_4802_34950">
<rect width="200" height="200" fill="white"/>
</clipPath>
</defs>
</svg>
